<svg xmlns="http://www.w3.org/2000/svg"  viewBox="0 0 64 64" width="64px" height="64px" baseProfile="basic"><radialGradient id="16WQtqdOFJQY7cHMKHOeZa" cx="32" cy="31.5" r="31.259" gradientTransform="translate(0 2)" gradientUnits="userSpaceOnUse"><stop offset="0" stop-color="#9ceeff"/><stop offset=".642" stop-color="#c5f5ff"/><stop offset="1" stop-color="#dcf9ff"/></radialGradient><path fill="url(#16WQtqdOFJQY7cHMKHOeZa)" d="M59.307,42H45v-8h14.302c1.895,0,3.594-1.419,3.693-3.312C63.101,28.67,61.495,27,59.5,27H45	v-5h14.828c2.089,0,3.955-1.527,4.153-3.607C64.209,16.008,62.339,14,60,14H45v-4h9.302c1.895,0,3.594-1.419,3.693-3.312	C58.101,4.67,56.495,3,54.5,3H9.698C7.803,3,6.104,4.419,6.005,6.312C5.899,8.33,7.505,10,9.5,10H19v4h-3H9H4.172	c-2.089,0-3.955,1.527-4.153,3.607C-0.209,19.992,1.661,22,4,22h5h7h3v5H4.698c-1.895,0-3.594,1.419-3.693,3.312	C0.899,32.33,2.505,34,4.5,34H19v6H4.693c-2.35,0-4.449,1.718-4.672,4.058C-0.235,46.742,1.869,49,4.5,49h10	c2.485,0,4.5,2.015,4.5,4.5v1c0,1.933-1.567,3.5-3.5,3.5h-3.389c-1.451,0-2.781,0.981-3.054,2.406C8.689,62.323,10.149,64,12,64	h39.889c1.451,0,2.781-0.981,3.054-2.406C55.311,59.677,53.851,58,52,58h-3.5c-1.933,0-3.5-1.567-3.5-3.5l0,0	c0-1.933,1.567-3.5,3.5-3.5h11c2.631,0,4.735-2.258,4.479-4.942C63.756,43.718,61.657,42,59.307,42z"/><linearGradient id="16WQtqdOFJQY7cHMKHOeZb" x1="32" x2="32" y1="56.677" y2="3.589" gradientTransform="translate(0 2)" gradientUnits="userSpaceOnUse"><stop offset="0" stop-color="#0d47a1"/><stop offset=".365" stop-color="#135fba"/><stop offset=".734" stop-color="#1770cc"/><stop offset="1" stop-color="#1976d2"/></linearGradient><path fill="url(#16WQtqdOFJQY7cHMKHOeZb)" d="M18,8h28c5.523,0,10,4.477,10,10v28c0,5.523-4.477,10-10,10H18c-5.523,0-10-4.477-10-10V18	C8,12.477,12.477,8,18,8z"/><path fill="#fff" d="M42,35h3c0.552,0,1-0.448,1-1v-4c0-0.552-0.448-1-1-1h-3V35z"/><path fill="#fff" d="M41.192,27.05l2.121-2.121c0.391-0.391,0.391-1.024,0-1.414l-2.828-2.828	c-0.391-0.391-1.024-0.391-1.414,0l-2.121,2.121L41.192,27.05z"/><path fill="#fff" d="M35,22v-3c0-0.552-0.448-1-1-1h-4c-0.552,0-1,0.448-1,1v3H35z"/><circle cx="32" cy="32" r="4" fill="#fff"/><path fill="#fff" d="M43,46c0,2.76-2.24,5-5,5H18.5c-3.025,0-5.5-2.475-5.5-5.5v-19c0-3.025,2.475-5.5,5.5-5.5h13.17	c5.97,0,10.93,4.51,11.31,10.27c0.106,1.66-0.148,3.272-0.731,4.756C42.02,36.609,41.464,37,40.837,37H38.24	c1.26-1.56,1.88-3.5,1.74-5.54C39.71,27.28,36.06,24,31.67,24H18.5c-1.381,0-2.5,1.119-2.5,2.5v19c0,1.381,1.119,2.5,2.5,2.5H38	c1.1,0,2-0.9,2-2H43z"/><linearGradient id="16WQtqdOFJQY7cHMKHOeZc" x1="34.5" x2="34.5" y1="46" y2="13" gradientUnits="userSpaceOnUse"><stop offset="0" stop-color="#40aeef"/><stop offset="1" stop-color="#43bdf2"/></linearGradient><path fill="url(#16WQtqdOFJQY7cHMKHOeZc)" d="M45.5,13H26c-2.76,0-5,2.24-5,5h3c0-1.1,0.9-2,2-2h19.5c1.381,0,2.5,1.119,2.5,2.5v19	c0,1.381-1.119,2.5-2.5,2.5H32.33c-4.39,0-8.04-3.28-8.31-7.46c-0.14-2.04,0.48-3.98,1.74-5.54h-2.597	c-0.626,0-1.183,0.391-1.411,0.974c-0.132,0.335-0.241,0.679-0.339,1.026H19c-0.552,0-1,0.448-1,1v4c0,0.552,0.448,1,1,1h2.427	c0.239,0.822,0.578,1.602,0.997,2.333l-1.738,1.738c-0.391,0.391-0.391,1.024,0,1.414l2.828,2.828c0.391,0.391,1.024,0.391,1.414,0	l1.777-1.777c0.721,0.401,1.486,0.734,2.294,0.975V45c0,0.552,0.448,1,1,1h4c0.552,0,1-0.448,1-1v-2h10.5c3.025,0,5.5-2.475,5.5-5.5	v-19C51,15.475,48.525,13,45.5,13z"/></svg>